# xmcd
#
# Track frame offsets:
#	150
#	15156
#	27798
#	38861
#	48316
#	61663
#	76873
#	93033
#	103393
#	117106
#	130385
#	145531
#	160158
#	173370
#	178973
#	193607
#	208919
#	226261
#	235702
#	245628
#
# Disc length: 3469 seconds
#
# Revision: 1
# Processed by: cddbd v1.5.2PL0 Copyright (c) Steve Scherf et al.
# Submitted via: audiograbber 1.83.01
#
DISCID=f70d8b14
DTITLE=Various Artist - Country Greats Vol 19
DYEAR=2002
DGENRE=Older Country
TTITLE0=Ray Price - The Old Rugged Cross
TTITLE1=Patsy Cline - Just A Closer Walk With Thee
TTITLE2=Porter Wagoner - What Would You Do (If Jesus Came To Your House)
TTITLE3=Skeeter Davis - Turn Your Radio On
TTITLE4=Lee Greenwood - Amazing Grace
TTITLE5=Jack Greene - Why Me Lord
TTITLE6=Jim Ed Brown - Whispering Hope
TTITLE7=Don Gibson - There Is Power In The Blood
TTITLE8=Johnny Darrell - Little Delta Church
TTITLE9=Lacy J Dalton - Life's Railway To Heaven
TTITLE10=Lee Greenwood - Amen
TTITLE11=Connie Smith - Jesus Is Your Ticket To Heaven
TTITLE12=Ray Price - What A Friend We Have In Jesus
TTITLE13=Narvel Felts - Rock Of Ages
TTITLE14=Kenny Price - Peace In The Valley
TTITLE15=Margo Smith - You Light Up My Life
TTITLE16=Lee Greenwood - One Day At A Time
TTITLE17=Merle Kilgore - In The Sweet Bye And Bye
TTITLE18=David Houston - Church In The Wildwood
TTITLE19=Sandy Posey - Put Your Hand In The Hand
EXTD=20 cd set
EXTT0=
EXTT1=
EXTT2=
EXTT3=
EXTT4=
EXTT5=
EXTT6=
EXTT7=
EXTT8=
EXTT9=
EXTT10=
EXTT11=
EXTT12=
EXTT13=
EXTT14=
EXTT15=
EXTT16=
EXTT17=
EXTT18=
EXTT19=
PLAYORDER=
